<svg width="50" height="52" viewBox="0 0 50 52" fill="none" xmlns="http://www.w3.org/2000/svg">
<mask id="path-1-inside-1" fill="white">
<path d="M24.8915 1.00909C24.8276 1.02288 24.7664 1.04745 24.7106 1.08177L3.28956 13.292C3.20078 13.3435 3.12721 13.4177 3.07635 13.5071C3.02549 13.5965 2.99917 13.6978 3.00008 13.8008V38.2031C3.00232 38.303 3.03013 38.4006 3.08083 38.4865C3.13153 38.5724 3.20342 38.6438 3.28956 38.6937L24.7106 50.9221C24.7986 50.9731 24.8984 51 25.0001 51C25.1017 51 25.2015 50.9731 25.2895 50.9221L46.6925 38.6937C46.7786 38.6438 46.8505 38.5724 46.9012 38.4865C46.9519 38.4006 46.9797 38.303 46.982 38.2031L47.0001 13.7826C46.9992 13.6778 46.9701 13.5753 46.916 13.4857C46.8619 13.3962 46.7846 13.323 46.6925 13.2738L25.2895 1.08177C25.1699 1.01027 25.0286 0.984464 24.8915 1.00909ZM25.0001 2.24465L45.2451 13.7826L24.982 25.3206L4.71883 13.8008L25.0001 2.24465ZM45.8422 14.8001L45.8241 37.8579L25.579 49.4322V26.3199L45.8422 14.8001ZM4.15798 14.8183L24.4211 26.3381V49.4322L4.15798 37.8579V14.8183Z"/>
</mask>
<path d="M24.7106 1.08177L26.6914 4.55686L26.7495 4.52376L26.8064 4.48873L24.7106 1.08177ZM3.28956 13.292L1.30871 9.81693L1.29586 9.82425L1.28307 9.83167L3.28956 13.292ZM3.00008 13.8008H7.00008V13.7831L6.99993 13.7654L3.00008 13.8008ZM3.00008 38.2031H-0.999916V38.2479L-0.998914 38.2926L3.00008 38.2031ZM3.28956 38.6937L1.28392 42.1545L1.29518 42.1611L1.30649 42.1675L3.28956 38.6937ZM24.7106 50.9221L26.7168 47.4616L26.7053 47.4549L26.6937 47.4483L24.7106 50.9221ZM25.0001 51V47V51ZM25.2895 50.9221L23.3052 47.449L23.2942 47.4553L23.2833 47.4616L25.2895 50.9221ZM46.6925 38.6937L48.6768 42.1668L48.6875 42.1607L48.6981 42.1545L46.6925 38.6937ZM46.982 38.2031L50.981 38.2926L50.9819 38.2494L50.982 38.2061L46.982 38.2031ZM47.0001 13.7826L51.0001 13.7856L51.0001 13.7673L50.9999 13.7491L47.0001 13.7826ZM46.6925 13.2738L44.7126 16.7495L44.7615 16.7773L44.8111 16.8038L46.6925 13.2738ZM25.2895 1.08177L23.2377 4.51543L23.2735 4.5368L23.3097 4.55741L25.2895 1.08177ZM25.0001 2.24465L26.9807 -1.23059L25.0003 -2.35923L23.0198 -1.23077L25.0001 2.24465ZM45.2451 13.7826L47.2244 17.2586L53.3263 13.7842L47.2257 10.3074L45.2451 13.7826ZM24.982 25.3206L23.0051 28.7979L24.9835 29.9227L26.9612 28.7966L24.982 25.3206ZM4.71883 13.8008L2.73856 10.3254L-3.36775 13.8047L2.74193 17.2781L4.71883 13.8008ZM45.8422 14.8001L49.8422 14.8033L49.8476 7.9218L43.8653 11.3228L45.8422 14.8001ZM45.8241 37.8579L47.8094 41.3304L49.8223 40.1796L49.8241 37.861L45.8241 37.8579ZM25.579 49.4322H21.579V56.3266L27.5643 52.9047L25.579 49.4322ZM25.579 26.3199L23.6021 22.8426L21.579 23.9927V26.3199H25.579ZM4.15798 14.8183L6.13488 11.341L0.157978 7.94304V14.8183H4.15798ZM24.4211 26.3381H28.4211V24.0109L26.398 22.8608L24.4211 26.3381ZM24.4211 49.4322L22.4372 52.9055L28.4211 56.3235V49.4322H24.4211ZM4.15798 37.8579H0.157978V40.1796L2.17402 41.3312L4.15798 37.8579ZM24.0486 -2.90109C23.5411 -2.79168 23.0563 -2.5968 22.6147 -2.3252L26.8064 4.48873C26.4765 4.6917 26.114 4.83744 25.7344 4.91927L24.0486 -2.90109ZM22.7298 -2.39332L1.30871 9.81693L5.2704 16.7671L26.6914 4.55686L22.7298 -2.39332ZM1.28307 9.83167C0.58029 10.2392 -1.97887e-05 10.8255 -0.400288 11.529L6.55299 15.4852C6.25443 16.0099 5.82128 16.4478 5.29605 16.7524L1.28307 9.83167ZM-0.400288 11.529C-0.800485 12.2323 -1.00691 13.0285 -0.999759 13.8362L6.99993 13.7654C7.00526 14.3672 6.85147 14.9606 6.55299 15.4852L-0.400288 11.529ZM-0.999916 13.8008V38.2031H7.00008V13.8008H-0.999916ZM-0.998914 38.2926C-0.981374 39.0762 -0.763196 39.843 -0.36417 40.5192L6.52583 36.4538C6.82345 36.9582 6.98601 37.5298 6.99908 38.1136L-0.998914 38.2926ZM-0.36417 40.5192C0.0349185 41.1956 0.601969 41.7593 1.28392 42.1545L5.2952 35.2329C5.80486 35.5282 6.22814 35.9492 6.52583 36.4538L-0.36417 40.5192ZM1.30649 42.1675L22.7275 54.3959L26.6937 47.4483L5.27262 35.2199L1.30649 42.1675ZM22.7043 54.3826C23.4013 54.7866 24.1931 55 25.0001 55V47C25.6038 47 26.196 47.1596 26.7168 47.4616L22.7043 54.3826ZM25.0001 55C25.8071 55 26.5989 54.7866 27.2958 54.3826L23.2833 47.4616C23.8042 47.1596 24.3963 47 25.0001 47V55ZM27.2739 54.3952L48.6768 42.1668L44.7082 35.2206L23.3052 47.449L27.2739 54.3952ZM48.6981 42.1545C49.3801 41.7593 49.9471 41.1955 50.3462 40.5192L43.4562 36.4538C43.7539 35.9493 44.1772 35.5282 44.6869 35.2329L48.6981 42.1545ZM50.3462 40.5192C50.7452 39.843 50.9634 39.0762 50.981 38.2926L42.983 38.1136C42.996 37.5297 43.1586 36.9581 43.4562 36.4538L50.3462 40.5192ZM50.982 38.2061L51.0001 13.7856L43.0001 13.7796L42.982 38.2001L50.982 38.2061ZM50.9999 13.7491C50.993 12.9271 50.7652 12.1211 50.3391 11.4163L43.4929 15.5551C43.1751 15.0294 43.0053 14.4286 43.0002 13.8161L50.9999 13.7491ZM50.3391 11.4163C49.9129 10.7114 49.3036 10.1329 48.5739 9.74391L44.8111 16.8038C44.2656 16.5131 43.8108 16.081 43.4929 15.5551L50.3391 11.4163ZM48.6724 9.79821L27.2694 -2.39387L23.3097 4.55741L44.7126 16.7495L48.6724 9.79821ZM27.3414 -2.3519C26.3938 -2.91813 25.2726 -3.12343 24.1842 -2.92787L25.5989 4.94605C24.7846 5.09235 23.946 4.93866 23.2377 4.51543L27.3414 -2.3519ZM23.0195 5.71989L43.2645 17.2578L47.2257 10.3074L26.9807 -1.23059L23.0195 5.71989ZM43.2659 10.3066L23.0027 21.8446L26.9612 28.7966L47.2244 17.2586L43.2659 10.3066ZM26.9589 21.8432L6.69573 10.3234L2.74193 17.2781L23.0051 28.7979L26.9589 21.8432ZM6.6991 17.2762L26.9803 5.72007L23.0198 -1.23077L2.73856 10.3254L6.6991 17.2762ZM41.8422 14.797L41.8241 37.8547L49.8241 37.861L49.8422 14.8033L41.8422 14.797ZM43.8388 34.3853L23.5937 45.9596L27.5643 52.9047L47.8094 41.3304L43.8388 34.3853ZM29.579 49.4322V26.3199H21.579V49.4322H29.579ZM27.5559 29.7973L47.8191 18.2775L43.8653 11.3228L23.6021 22.8426L27.5559 29.7973ZM2.18108 18.2956L22.4442 29.8154L26.398 22.8608L6.13488 11.341L2.18108 18.2956ZM20.4211 26.3381V49.4322H28.4211V26.3381H20.4211ZM26.4051 45.9589L6.14193 34.3846L2.17402 41.3312L22.4372 52.9055L26.4051 45.9589ZM8.15798 37.8579V14.8183H0.157978V37.8579H8.15798Z" fill="#494E54" mask="url(#path-1-inside-1)"/>
<path d="M24.8562 0.812241L24.8561 0.812123L24.8494 0.81358C24.7644 0.831896 24.6831 0.86434 24.6089 0.909539L3.19051 13.1183L3.18923 13.119C3.06976 13.1883 2.97085 13.2881 2.90252 13.4082L3.07635 13.5071C3.02549 13.5965 2.99917 13.6978 3.00008 13.8008H2.80008V13.8016L2.80003 38.2031L2.80013 38.2076C2.80313 38.3416 2.84046 38.4727 2.90858 38.5881L2.90858 38.5881C2.9767 38.7036 3.07335 38.7995 3.18927 38.8667L3.1904 38.8674L24.6103 51.0951C24.6104 51.0952 24.6105 51.0953 24.6107 51.0954C24.729 51.1639 24.8633 51.2 25.0001 51.2C25.1367 51.2 25.271 51.1639 25.3893 51.0955C25.3895 51.0954 25.3897 51.0952 25.3899 51.0951L46.7917 38.8674L46.7928 38.8667C46.9087 38.7995 47.0053 38.7036 47.0735 38.5881L46.9012 38.4865L47.0735 38.5881C47.1416 38.4727 47.1789 38.3416 47.1819 38.2076L47.182 38.2076L47.182 38.2033L47.2001 13.7828L47.2001 13.7809C47.1989 13.6403 47.1599 13.5026 47.0872 13.3822C47.0149 13.2628 46.9121 13.1649 46.7893 13.0988L25.3921 0.910086C25.3915 0.909704 25.3909 0.909324 25.3902 0.908944C25.2296 0.813572 25.04 0.779201 24.8562 0.812241ZM5.12316 13.8006L25.0001 2.47484L44.8411 13.7825L24.9819 25.0905L5.12316 13.8006ZM25.779 26.4363L45.6419 15.144L45.6242 37.7418L25.779 49.0875V26.4363ZM4.35798 37.7418V15.1621L24.2211 26.4544V49.0876L4.35798 37.7418Z" stroke="#494E54" stroke-width="0.4"/>
</svg>
